<svg width="273" height="312" viewBox="0 0 273 312" fill="none" xmlns="http://www.w3.org/2000/svg">
<g clip-path="url(#clip0_1980_113)">
<mask id="mask0_1980_113" style="mask-type:luminance" maskUnits="userSpaceOnUse" x="0" y="0" width="273" height="312">
<path d="M273 0H0V312H273V0Z" fill="white"/>
</mask>
<g mask="url(#mask0_1980_113)">
<path d="M12.7235 302.598C11.6228 302.591 10.5662 302.164 9.77056 301.403C9.35878 301.009 9.03179 300.535 8.80961 300.01C8.58744 299.486 8.47477 298.921 8.47848 298.351V185.619H60.2968V216.168C60.2929 216.738 60.4056 217.304 60.6278 217.828C60.8499 218.353 61.177 218.827 61.5889 219.221C62.3845 219.982 63.4415 220.41 64.5427 220.417C65.2801 220.416 66.0044 220.221 66.6419 219.85L173.048 158.96C173.696 158.589 174.235 158.054 174.61 157.407C174.984 156.761 175.182 156.027 175.182 155.28C175.182 154.534 174.984 153.8 174.61 153.154C174.235 152.508 173.696 151.973 173.048 151.602L66.6385 90.7107C66.0008 90.3407 65.2766 90.1456 64.5393 90.1452C63.4381 90.1515 62.3811 90.5794 61.5855 91.3408C61.1734 91.7346 60.8462 92.2085 60.624 92.7334C60.4018 93.2583 60.2893 93.8227 60.2934 94.3926V124.423H8.47763V12.7244C8.47391 12.1545 8.58658 11.5896 8.80876 11.0648C9.03094 10.5399 9.35793 10.0661 9.7697 9.67213C10.5649 8.91115 11.6212 8.48327 12.7219 8.47656C13.4626 8.47676 14.1899 8.67355 14.8295 9.04702L263.249 151.862C263.896 152.233 264.433 152.769 264.806 153.414C265.179 154.06 265.376 154.792 265.376 155.537C265.376 156.283 265.179 157.015 264.806 157.66C264.433 158.305 263.896 158.841 263.249 159.212L14.8304 302.027C14.191 302.4 13.4639 302.597 12.7235 302.598Z" fill="black"/>
</g>
</g>
<defs>
<clipPath id="clip0_1980_113">
<rect width="273" height="312" fill="white"/>
</clipPath>
</defs>
</svg>
